<?xml version="1.0" encoding="utf-8"?>
<!-- Generator: Adobe Illustrator 25.3.1, SVG Export Plug-In . SVG Version: 6.00 Build 0)  -->
<svg version="1.1" id="Layer_1" xmlns="http://www.w3.org/2000/svg" xmlns:xlink="http://www.w3.org/1999/xlink" x="0px" y="0px"
	 viewBox="0 0 144.3 43" style="enable-background:new 0 0 144.3 43;" xml:space="preserve">
<style type="text/css">
	.st0{enable-background:new    ;}
	.st1{fill:#009F8B;}
</style>
<g class="st0">
	<path class="st1" d="M15.6,25.4c-1.9,3-4.9,4.9-7.6,7.1c-0.3,2.3-0.7,4.6-1.3,6.9C6.2,41.1,5,42.8,3,42.7c-2.4-0.1-2.2-3.1-1.6-4.6
		c0.9-2.7,2.9-4.5,5-6.3c0.6-4.2,1.3-8.5,2.2-12.7c0.4-1.8,0.8-3.9,1.4-5.8c-2.9,0.8-6.3-0.5-5.8-4.2c0.1-1,1.7-0.6,1.5,0.4
		c-0.4,3,3.3,3.1,5.2,1.6c0.4-0.6,0.8-1.2,1.3-1.7c0.5-0.5,1.6,0,1.3,0.8c-0.3,0.8-0.7,1.4-1.3,1.9c-0.7,1.4-1.1,3.1-1.5,4.5
		c-0.7,2.8-1.3,5.6-1.8,8.5c-0.3,1.8-0.5,3.6-0.8,5.4c2.3-1.7,4.6-3.4,6-5.8C14.9,23.8,16.2,24.5,15.6,25.4z M6,34.2
		c-0.8,0.8-1.5,1.5-2.1,2.5c-0.5,0.7-1,1.5-1.2,2.4c-0.4,1.2,0.9,3.1,1.9,1.1c0.3-0.5,0.5-1.1,0.6-1.7C5.6,37.1,5.8,35.6,6,34.2z"/>
	<path class="st1" d="M25.9,26.1c-1.1,1.7-4.2,8.5-7.2,6.2c-0.6-0.5-0.9-1.3-0.8-2.2c-1,1.3-2.1,2.4-3.5,2.7c-2.1,0.6-3.4-0.9-3.2-3
		c0.4-3.7,3.5-10.1,8.1-7.8c0.9,0.4,0.1,1.8-0.8,1.3c-3.1-1.5-5.3,3.4-5.7,5.7c-0.1,0.6-0.5,3.3,1.4,2.2c0.7-0.4,1.2-0.9,1.7-1.5
		c1.4-1.7,2.4-3.5,3.3-5.4c0.4-0.8,1.5-0.2,1.4,0.6c-0.3,1.8-1.3,3.5-1.2,5.4c0.1,2.3,2.8-1.3,3.1-1.8l2.1-3.2
		C25.2,24.6,26.4,25.3,25.9,26.1z"/>
	<path class="st1" d="M37.7,25.8c-1.1,2-2.9,5-5.3,5.6c-1.5,0.4-2.8-0.5-2.9-2.1c0-1.2,0.4-2.3,0.6-3.5c0.6-2.8-1.7-0.9-2.6,0
		c-1.7,1.9-3.3,4.2-4,6.7c-0.3,1-1.6,0.5-1.4-0.4c0.6-3.5,1.5-7,2.1-10.5c0.2-0.9,1.6-0.5,1.5,0.4c-0.3,1.6-0.6,3.1-0.9,4.7
		c1.4-2.2,3.3-4,5.3-4.1c1.7-0.1,1.9,2,1.7,3.1c-0.1,0.7-1.5,5.7,0.9,3.9c1.6-1.2,2.8-2.8,3.7-4.5C36.9,24.2,38.1,24.9,37.7,25.8z"
		/>
	<path class="st1" d="M45.7,26.1c-1.7,2.6-5.9,8.7-9.8,7.1c-3.3-1.4-1.7-6.9-0.4-9.1c0.9-1.5,2.1-3.2,3.9-3.4c1.1-0.2,2,0.4,2.3,1.5
		c0.8,3.3-3.4,6.5-6,7.5c0,0,0,0-0.1,0c0,1.5,0.5,2.7,2.4,2c2.8-1.2,4.9-4,6.5-6.4C45,24.5,46.2,25.2,45.7,26.1z M36.1,26.4
		c-0.1,0.4-0.3,1-0.4,1.7c1.9-0.9,4.5-2.9,4.5-5.2c0-1.4-1.7-0.3-2.3,0.3C37.2,24,36.5,25.2,36.1,26.4z"/>
	<path class="st1" d="M49.2,12.5c-0.3,1.1-1.2,2.1-1.9,2.8c-0.7,0.6-1.9-0.4-1.2-1.1c0.6-0.5,1.2-1.2,1.5-1.9c0-0.1,0-0.1,0.1-0.2
		c-2.1-0.2-0.9-3.4,0.9-2.4C49.5,10.2,49.4,11.7,49.2,12.5z"/>
	<path class="st1" d="M45.7,34.4c-0.8-0.6,0-1.9,0.8-1.3c2,1.4,5.4-0.1,4.5-2.9c-0.5-1.6-1.7-3-2.4-4.5c-0.8-1.7-0.3-3.6,0.6-5.2
		c0.5-0.8,1.6-2.1,2.4-0.7c1,1.7-0.6,4.2-1.5,5.7c0.7,1.7,2.1,3.3,2.4,5C53.3,34.2,48.6,36.3,45.7,34.4z"/>
</g>
<g class="st0">
	<path class="st1" d="M64.6,26.9c-0.5,2.4-0.9,4.9-1.3,7.4c-0.1,1-1.7,0.6-1.5-0.4c1.1-7.6,3.1-15,4.7-22.4c-0.2,0-0.4,0.1-0.6,0.1
		c-2.5,0.6-6.3,3-4.8,6.2c0.5,0.9-0.9,1.7-1.4,0.8c-3.8-7.8,10.5-11.7,14.8-5.9C79.3,19.2,72.2,29.4,64.6,26.9z M73.4,13.9
		c-1.3-1.7-3.3-2.6-5.3-2.6c-1,4.7-2.2,9.4-3.2,14C71,27.6,77.2,19.1,73.4,13.9z"/>
	<path class="st1" d="M87.7,26.1c-1.1,1.7-4.2,8.5-7.2,6.2c-0.6-0.5-0.9-1.3-0.8-2.2c-1,1.3-2.1,2.4-3.5,2.7c-2.1,0.6-3.4-0.9-3.2-3
		c0.4-3.7,3.5-10.1,8.1-7.8c0.9,0.4,0.1,1.8-0.8,1.3c-3.1-1.5-5.3,3.4-5.7,5.7c-0.1,0.6-0.5,3.3,1.4,2.2c0.7-0.4,1.2-0.9,1.7-1.5
		c1.4-1.7,2.4-3.5,3.3-5.4c0.4-0.8,1.5-0.2,1.4,0.6c-0.3,1.8-1.3,3.5-1.2,5.4c0.1,2.3,2.8-1.3,3.1-1.8l2.1-3.2
		C87,24.6,88.2,25.3,87.7,26.1z"/>
	<path class="st1" d="M95.6,25.6c-1.7,2.6-5.7,9.1-9.7,6.2c-1.6-1.2-1.1-4.1-0.8-5.7c0.2-1.1,0.4-2.2,0.7-3.2h-0.6c-1,0-1-1.5,0-1.5
		c0.4,0,0.7,0,1,0c0.6-2.1,1.4-4.2,2.2-6.3c0.4-0.9,1.8-0.5,1.5,0.4c-0.8,1.9-1.5,3.9-2.1,5.8c1.1,0,2.2-0.1,3.3-0.1
		c1,0,1,1.5,0,1.5c-1.3,0-2.5,0.1-3.8,0.2c-0.1,0.3-0.2,0.6-0.3,0.9c-0.4,1.8-1.3,4.5-0.6,6.4c0.5,1.2,2.4,0.7,3.2,0.2
		c2-1.4,3.4-3.4,4.6-5.4C95,24.1,96.2,24.8,95.6,25.6z"/>
	<path class="st1" d="M101.4,25.5c-1.3,1.9-5.2,9.4-8.6,7.2c-1.4-0.9-1.3-2.3-1-3.9c0.4-2.5,1.4-4.8,2.4-7c0.4-0.9,1.6-0.1,1.4,0.8
		c-0.3,1.2-3.8,8-1.9,8.9c2,0.9,5.3-4.9,6.5-6.6C100.7,24,101.9,24.7,101.4,25.5z M95,18.1c-0.1-0.5,0.1-1.2,0.6-1.4
		c0.1,0,0.1,0,0.1,0c0.5-0.5,1.4-1.1,2-0.4c0.5,0.5,0.4,1.3,0.1,1.8c-0.3,0.6-0.9,1.1-1.6,1C95.6,19.1,95.1,18.8,95,18.1z"/>
	<path class="st1" d="M96,34.4c-0.8-0.6,0-1.9,0.8-1.3c2,1.4,5.4-0.1,4.5-2.9c-0.5-1.6-1.7-3-2.4-4.5c-0.8-1.7-0.3-3.6,0.6-5.2
		c0.5-0.8,1.6-2.1,2.4-0.7c1,1.7-0.6,4.2-1.5,5.7c0.7,1.7,2.1,3.3,2.4,5C103.5,34.2,98.8,36.3,96,34.4z"/>
	<path class="st1" d="M101.3,34.4c-0.8-0.6,0-1.9,0.8-1.3c2,1.4,5.4-0.1,4.5-2.9c-0.5-1.6-1.7-3-2.4-4.5c-0.8-1.7-0.3-3.6,0.6-5.2
		c0.5-0.8,1.6-2.1,2.4-0.7c1,1.7-0.6,4.2-1.5,5.7c0.7,1.7,2.1,3.3,2.4,5C108.8,34.2,104.1,36.3,101.3,34.4z"/>
	<path class="st1" d="M120,26.1c-1.7,2.6-5.9,8.7-9.8,7.1c-3.3-1.4-1.7-6.9-0.4-9.1c0.9-1.5,2.1-3.2,3.9-3.4c1.1-0.2,2,0.4,2.3,1.5
		c0.8,3.3-3.4,6.5-6,7.5c0,0,0,0-0.1,0c0,1.5,0.5,2.7,2.4,2c2.8-1.2,4.9-4,6.5-6.4C119.3,24.5,120.5,25.2,120,26.1z M110.4,26.4
		c-0.1,0.4-0.3,1-0.4,1.7c1.9-0.9,4.5-2.9,4.5-5.2c0-1.4-1.7-0.3-2.3,0.3C111.4,24,110.8,25.2,110.4,26.4z"/>
	<path class="st1" d="M128.6,25.7c-1.4,2.9-5,9.3-9.2,8c-2.9-0.9-1.5-4.3,0.2-6.7c-0.5-0.1-1.1-0.3-1.5-0.7c-1.4-1.3-1.5-3.2-0.8-5
		c0.4-0.9,1.4-2.3,2.2-0.8c0.7,1.3,0.1,3.2-0.6,4.5c0.7,0.6,1.5,0.7,2.3,0.1c0.1,0,0.1-0.1,0.2-0.2l0.1-0.1c0.7-0.5,1.5,0.6,0.9,1.2
		c-0.2,0.2-0.4,0.4-0.7,0.5c-1.2,1.1-2.5,3-2.4,4.6c0,0.9,0.5,1.3,1.4,1.1c3.2-0.9,5.2-4.5,6.6-7.2
		C127.8,24.1,129.1,24.8,128.6,25.7z"/>
	<path class="st1" d="M134.4,25.5c-1.3,1.9-5.2,9.4-8.6,7.2c-1.4-0.9-1.3-2.3-1-3.9c0.4-2.5,1.4-4.8,2.4-7c0.4-0.9,1.6-0.1,1.4,0.8
		c-0.3,1.2-3.8,8-1.9,8.9c2,0.9,5.3-4.9,6.5-6.6C133.7,24,134.9,24.7,134.4,25.5z M127.9,18.1c-0.1-0.5,0.1-1.2,0.6-1.4
		c0.1,0,0.1,0,0.1,0c0.5-0.5,1.4-1.1,2-0.4c0.5,0.5,0.4,1.3,0.1,1.8c-0.3,0.6-0.9,1.1-1.6,1C128.6,19.1,128,18.8,127.9,18.1z"/>
	<path class="st1" d="M142.4,26.1c-1.7,2.6-5.9,8.7-9.8,7.1c-3.3-1.4-1.7-6.9-0.4-9.1c0.9-1.5,2.1-3.2,3.9-3.4
		c1.1-0.2,2,0.4,2.3,1.5c0.8,3.3-3.4,6.5-6,7.5c0,0,0,0-0.1,0c0,1.5,0.5,2.7,2.4,2c2.8-1.2,4.9-4,6.5-6.4
		C141.7,24.5,142.9,25.2,142.4,26.1z M132.8,26.4c-0.1,0.4-0.3,1-0.4,1.7c1.9-0.9,4.5-2.9,4.5-5.2c0-1.4-1.7-0.3-2.3,0.3
		C133.8,24,133.2,25.2,132.8,26.4z"/>
</g>
</svg>
